<svg xmlns="http://www.w3.org/2000/svg" style="display:none" aria-hidden="true">
  <!--
    Social/messenger icon sprite. Usage:
      <svg class="icon"><use href="/icons/social.svg#linkedin"/></svg>
    Paths sourced from simple-icons.org (CC0), viewBox 0 0 24 24, fill=currentColor.
  -->

  <symbol id="mail" viewBox="0 0 24 24">
    <path fill="currentColor" d="M0 4v16c0 1.1.9 2 2 2h20c1.1 0 2-.9 2-2V4c0-1.1-.9-2-2-2H2C.9 2 0 2.9 0 4zm21.4 0L12 11.05 2.6 4h18.8zM2 6.13l9.46 7.1c.32.24.76.24 1.08 0L22 6.13V20H2V6.13z"/>
  </symbol>

  <symbol id="phone" viewBox="0 0 24 24">
    <path fill="currentColor" d="M6.62 10.79a15.05 15.05 0 0 0 6.59 6.59l2.2-2.2a1 1 0 0 1 1.02-.24c1.12.37 2.33.57 3.57.57a1 1 0 0 1 1 1V20a1 1 0 0 1-1 1A17 17 0 0 1 3 4a1 1 0 0 1 1-1h3.5a1 1 0 0 1 1 1c0 1.25.2 2.45.57 3.57a1 1 0 0 1-.25 1.02l-2.2 2.2z"/>
  </symbol>

  <symbol id="telegram" viewBox="0 0 24 24">
    <path fill="currentColor" d="M11.944 0A12 12 0 0 0 0 12a12 12 0 0 0 12 12 12 12 0 0 0 12-12A12 12 0 0 0 12 0a12 12 0 0 0-.056 0zm4.962 7.224c.1-.002.321.023.465.14a.506.506 0 0 1 .171.325c.016.093.036.306.02.472-.18 1.898-.962 6.502-1.36 8.627-.168.9-.499 1.201-.82 1.23-.696.065-1.225-.46-1.9-.902-1.056-.693-1.653-1.124-2.678-1.8-1.185-.78-.417-1.21.258-1.91.177-.184 3.247-2.977 3.307-3.23.007-.032.014-.15-.056-.212s-.174-.041-.249-.024c-.106.024-1.793 1.14-5.061 3.345-.48.33-.913.49-1.302.48-.428-.008-1.252-.241-1.865-.44-.752-.245-1.349-.374-1.297-.789.027-.216.325-.437.893-.663 3.498-1.524 5.83-2.529 6.998-3.014 3.332-1.386 4.025-1.627 4.476-1.635z"/>
  </symbol>

  <symbol id="whatsapp" viewBox="0 0 24 24">
    <path fill="currentColor" d="M17.472 14.382c-.297-.149-1.758-.867-2.03-.967-.273-.099-.471-.148-.67.15-.197.297-.767.966-.94 1.164-.173.199-.347.223-.644.075-.297-.15-1.255-.463-2.39-1.475-.883-.788-1.48-1.761-1.653-2.059-.173-.297-.018-.458.13-.606.134-.133.298-.347.446-.52.149-.174.198-.298.298-.497.099-.198.05-.371-.025-.52-.075-.149-.669-1.612-.916-2.207-.242-.579-.487-.5-.669-.51-.173-.008-.371-.01-.57-.01-.198 0-.52.074-.792.372-.272.297-1.04 1.016-1.04 2.479 0 1.462 1.065 2.875 1.213 3.074.149.198 2.096 3.2 5.077 4.487.709.306 1.262.489 1.694.625.712.227 1.36.195 1.871.118.571-.085 1.758-.719 2.006-1.413.248-.694.248-1.289.173-1.413-.074-.124-.272-.198-.57-.347m-5.421 7.403h-.004a9.87 9.87 0 0 1-5.031-1.378l-.361-.214-3.741.982.998-3.648-.235-.374a9.86 9.86 0 0 1-1.51-5.26c.001-5.45 4.436-9.884 9.888-9.884 2.64 0 5.122 1.03 6.988 2.898a9.825 9.825 0 0 1 2.893 6.994c-.003 5.45-4.437 9.884-9.885 9.884m8.413-18.297A11.815 11.815 0 0 0 12.05 0C5.495 0 .16 5.335.157 11.892c0 2.096.547 4.142 1.588 5.945L.057 24l6.305-1.654a11.882 11.882 0 0 0 5.683 1.448h.005c6.554 0 11.89-5.335 11.893-11.893a11.821 11.821 0 0 0-3.48-8.413"/>
  </symbol>

  <symbol id="viber" viewBox="0 0 24 24">
    <path fill="currentColor" d="M11.4 0C9.473.028 5.333.344 3.02 2.467 1.302 4.187.696 6.7.633 9.817c-.063 3.116-.138 8.95 5.487 10.537h.005l-.005 2.414s-.036.978.61 1.177c.776.241 1.234-.499 1.978-1.296.408-.437.972-1.08 1.397-1.568 3.85.324 6.812-.418 7.146-.527.776-.252 5.166-.814 5.879-6.64.737-6.005-.36-9.802-2.34-11.514l-.012-.005c-.6-.55-3.005-2.3-8.375-2.32 0 0-.395-.026-1.005-.027zm.063 1.71c.517 0 .85.024.85.024 4.542.016 6.717 1.385 7.227 1.846 1.672 1.43 2.531 4.853 1.906 9.873-.595 4.864-4.153 5.172-4.81 5.382-.282.09-2.882.735-6.155.522 0 0-2.44 2.943-3.202 3.708-.117.121-.27.16-.358.158a.244.244 0 0 1-.165-.077c-.046-.057-.085-.156-.085-.291l.025-4.075c0-.025 0-.005 0 0-4.76-1.323-4.483-6.288-4.43-8.892.053-2.602.546-4.733 2.005-6.17 1.959-1.78 5.474-2.034 7.117-2.064 0 0 .035-.045.075-.045zm.34 2.392a.43.43 0 0 0-.43.43.43.43 0 0 0 .43.43c1.444.004 2.624.473 3.524 1.395.917.938 1.395 2.123 1.4 3.694.001.235.193.42.428.418h.003a.43.43 0 0 0 .428-.432c-.005-1.79-.567-3.235-1.674-4.365-1.115-1.14-2.515-1.713-4.142-1.715a.418.418 0 0 0-.013 0zm-3.553.42a1.07 1.07 0 0 0-.518.122c-.4.236-.766.535-1.078.886a.46.46 0 0 0-.085.13c-.197.36-.376.748-.51 1.155-.244.793.13 1.466.42 1.745l.018.022s.382.422.553.602c.353.378.726.74 1.118 1.082.78.704 1.62 1.34 2.51 1.9.46.291.928.547 1.402.764.122.06.348.165.59.273.025.012.05.027.075.04.62.31 1.183.413 1.408.413.83-.001 1.345-.835 1.345-.835v-.005c.252-.336.49-.692.713-1.06.21-.36.116-.792-.193-.965a14.21 14.21 0 0 0-1.69-.91c-.467-.225-.94-.064-1.13.193l-.41.522c-.21.265-.595.227-.595.227-2.81-.715-3.56-3.55-3.56-3.55s-.04-.387.227-.598l.522-.41c.252-.197.422-.66.193-1.13a13.16 13.16 0 0 0-.905-1.692c-.135-.235-.357-.36-.62-.422a1.043 1.043 0 0 0-.296.05Z"/>
  </symbol>

  <symbol id="instagram" viewBox="0 0 24 24">
    <path fill="currentColor" d="M12 0C8.74 0 8.333.015 7.053.072 5.775.132 4.905.333 4.14.63c-.789.306-1.459.717-2.126 1.384S.935 3.35.63 4.14C.333 4.905.131 5.775.072 7.053.012 8.333 0 8.74 0 12s.015 3.667.072 4.947c.06 1.277.261 2.148.558 2.913.306.788.717 1.459 1.384 2.126.667.666 1.336 1.079 2.126 1.384.766.296 1.636.499 2.913.558C8.333 23.988 8.74 24 12 24s3.667-.015 4.947-.072c1.277-.06 2.148-.262 2.913-.558.788-.306 1.459-.718 2.126-1.384.666-.667 1.079-1.335 1.384-2.126.296-.765.499-1.636.558-2.913.06-1.28.072-1.687.072-4.947s-.015-3.667-.072-4.947c-.06-1.277-.262-2.149-.558-2.913-.306-.789-.718-1.459-1.384-2.126C21.319 1.347 20.651.935 19.86.63c-.765-.297-1.636-.499-2.913-.558C15.667.012 15.26 0 12 0zm0 2.16c3.203 0 3.585.016 4.85.071 1.17.055 1.805.249 2.227.415.562.217.96.477 1.382.896.419.42.679.819.896 1.381.164.422.36 1.057.413 2.227.057 1.266.07 1.646.07 4.85s-.015 3.585-.074 4.85c-.061 1.17-.256 1.805-.421 2.227-.224.562-.479.96-.899 1.382-.419.419-.824.679-1.38.896-.42.164-1.065.36-2.235.413-1.274.057-1.649.07-4.859.07-3.211 0-3.586-.015-4.859-.074-1.171-.061-1.816-.256-2.236-.421-.569-.224-.96-.479-1.379-.899-.421-.419-.69-.824-.9-1.38-.165-.42-.359-1.065-.42-2.235-.045-1.26-.061-1.649-.061-4.844 0-3.196.016-3.586.061-4.861.061-1.17.255-1.814.42-2.234.21-.57.479-.96.9-1.381.419-.419.81-.689 1.379-.898.42-.166 1.051-.361 2.221-.421 1.275-.045 1.65-.06 4.859-.06l.045.03zm0 3.678c-3.405 0-6.162 2.76-6.162 6.162 0 3.405 2.76 6.162 6.162 6.162 3.405 0 6.162-2.76 6.162-6.162 0-3.405-2.76-6.162-6.162-6.162zM12 16c-2.21 0-4-1.79-4-4s1.79-4 4-4 4 1.79 4 4-1.79 4-4 4zm7.846-10.405c0 .795-.646 1.44-1.44 1.44-.795 0-1.44-.646-1.44-1.44 0-.794.646-1.439 1.44-1.439.793-.001 1.44.645 1.44 1.439z"/>
  </symbol>

  <symbol id="linkedin" viewBox="0 0 24 24">
    <path fill="currentColor" d="M20.447 20.452h-3.554v-5.569c0-1.328-.027-3.037-1.852-3.037-1.853 0-2.136 1.445-2.136 2.939v5.667H9.351V9h3.414v1.561h.046c.477-.9 1.637-1.85 3.37-1.85 3.601 0 4.267 2.37 4.267 5.455v6.286zM5.337 7.433a2.062 2.062 0 0 1-2.063-2.065 2.063 2.063 0 1 1 2.063 2.065zm1.782 13.019H3.555V9h3.564v11.452zM22.225 0H1.771C.792 0 0 .774 0 1.729v20.542C0 23.227.792 24 1.771 24h20.451C23.2 24 24 23.227 24 22.271V1.729C24 .774 23.2 0 22.222 0h.003z"/>
  </symbol>

  <symbol id="vk" viewBox="0 0 24 24">
    <path fill="currentColor" d="M15.07 2H8.93C3.33 2 2 3.33 2 8.93v6.14C2 20.67 3.33 22 8.93 22h6.14c5.6 0 6.93-1.33 6.93-6.93V8.93C22 3.33 20.67 2 15.07 2zm3.07 14.27h-1.45c-.55 0-.72-.44-1.71-1.43-.86-.83-1.24-.94-1.45-.94-.3 0-.39.08-.39.51v1.31c0 .36-.12.58-1.07.58-1.59 0-3.35-.96-4.59-2.75C5.62 10.93 5.11 8.96 5.11 8.57c0-.22.08-.42.5-.42h1.45c.38 0 .52.17.67.58.7 2.04 1.88 3.82 2.36 3.82.18 0 .27-.08.27-.55V9.9c-.05-.97-.57-1.05-.57-1.4 0-.16.13-.32.34-.32h2.28c.32 0 .43.17.43.55v2.86c0 .32.14.43.23.43.18 0 .33-.11.66-.44.99-1.11 1.69-2.81 1.69-2.81.09-.2.25-.39.62-.39h1.45c.44 0 .53.22.44.55-.18.84-1.96 3.36-1.96 3.36-.15.25-.21.36 0 .64.15.21.65.64 1 1.03.64.71 1.12 1.31 1.25 1.72.14.42-.08.63-.5.63z"/>
  </symbol>

  <symbol id="x" viewBox="0 0 24 24">
    <path fill="currentColor" d="M18.244 2.25h3.308l-7.227 8.26 8.502 11.24H16.17l-5.214-6.817L4.99 21.75H1.68l7.73-8.835L1.254 2.25H8.08l4.713 6.231zm-1.161 17.52h1.833L7.084 4.126H5.117z"/>
  </symbol>

  <symbol id="youtube" viewBox="0 0 24 24">
    <path fill="currentColor" d="M23.498 6.186a3.016 3.016 0 0 0-2.122-2.136C19.505 3.545 12 3.545 12 3.545s-7.505 0-9.377.505A3.017 3.017 0 0 0 .502 6.186C0 8.07 0 12 0 12s0 3.93.502 5.814a3.016 3.016 0 0 0 2.122 2.136c1.871.505 9.376.505 9.376.505s7.505 0 9.377-.505a3.015 3.015 0 0 0 2.122-2.136C24 15.93 24 12 24 12s0-3.93-.502-5.814zM9.545 15.568V8.432L15.818 12l-6.273 3.568z"/>
  </symbol>

  <symbol id="github" viewBox="0 0 24 24">
    <path fill="currentColor" d="M12 .297c-6.63 0-12 5.373-12 12 0 5.303 3.438 9.8 8.205 11.385.6.113.82-.258.82-.577 0-.285-.01-1.04-.015-2.04-3.338.724-4.042-1.61-4.042-1.61C4.422 18.07 3.633 17.7 3.633 17.7c-1.087-.744.084-.729.084-.729 1.205.084 1.838 1.236 1.838 1.236 1.07 1.835 2.809 1.305 3.495.998.108-.776.417-1.305.76-1.605-2.665-.3-5.466-1.332-5.466-5.93 0-1.31.465-2.38 1.235-3.22-.135-.303-.54-1.523.105-3.176 0 0 1.005-.322 3.3 1.23.96-.267 1.98-.399 3-.405 1.02.006 2.04.138 3 .405 2.28-1.552 3.285-1.23 3.285-1.23.645 1.653.24 2.873.12 3.176.765.84 1.23 1.91 1.23 3.22 0 4.61-2.805 5.625-5.475 5.92.42.36.81 1.096.81 2.22 0 1.606-.015 2.896-.015 3.286 0 .315.21.69.825.57C20.565 22.092 24 17.592 24 12.297c0-6.627-5.373-12-12-12"/>
  </symbol>
</svg>
