<svg xmlns="http://www.w3.org/2000/svg" viewBox="0 0 64 64">
  <rect width="64" height="64" rx="14" fill="#0A0A0A"/>
  <path d="M29.85 29.60L43.55 29.60L43.55 37.75L28.15 37.75L28.10 37.50Q23.70 37.50 20.40 36.02Q17.10 34.55 15.27 31.85Q13.45 29.15 13.45 25.55Q13.45 21.85 15.27 19.10Q17.10 16.35 20.40 14.80Q23.70 13.25 28.10 13.25L51.60 13.25L51.60 50.75L39.95 50.75L39.95 16.25L45.20 21.50L29.85 21.50Q27.65 21.50 26.40 22.55Q25.15 23.60 25.15 25.55Q25.15 27.50 26.40 28.55Q27.65 29.60 29.85 29.60M25.15 33.20L38.05 33.20L25.75 50.75L12.40 50.75" fill="#FFE500"/>
  <circle cx="48" cy="16" r="3" fill="#FF6B00"/>
</svg>
